<svg width="837" height="735" viewBox="0 0 837 735" fill="none" xmlns="http://www.w3.org/2000/svg">
<g opacity="0.2">
<path d="M251.597 390.741L279.62 395.388L320.148 314.086L292.129 309.449L251.597 390.741Z" fill="url(#paint0_linear)"/>
<path d="M293.672 444.482L321.701 449.115L279.623 395.389L251.6 390.742L293.672 444.482Z" fill="url(#paint1_linear)"/>
<path d="M360.357 354.458L388.386 359.091L319.662 271.358L291.643 266.721L360.357 354.458Z" fill="url(#paint2_linear)"/>
<path d="M294.169 487.206L322.198 491.84L388.389 359.093L360.36 354.46L294.169 487.206Z" fill="url(#paint3_linear)"/>
<path d="M294.167 487.206L360.357 354.46L291.684 266.708L225.432 399.477L294.167 487.206ZM292.13 309.451L334.208 363.177L293.655 444.442L251.583 390.702L292.115 309.41" fill="url(#paint4_linear)"/>
<path d="M684.711 208.68L684.887 196.509L636.357 169.369L636.171 181.543L684.711 208.68Z" fill="url(#paint5_linear)"/>
<path d="M717.581 169.137L717.771 156.972L684.887 196.509L684.711 208.68L717.581 169.137Z" fill="url(#paint6_linear)"/>
<path d="M666.058 129.253L666.239 117.092L620.8 171.734L620.609 183.899L666.058 129.253Z" fill="url(#paint7_linear)"/>
<path d="M733.138 166.771L733.319 154.61L666.242 117.094L666.062 129.254L733.138 166.771Z" fill="url(#paint8_linear)"/>
<path d="M687.691 221.426L733.137 166.77L666.057 129.244L620.601 183.904L687.691 221.426ZM669.041 142L717.612 169.125L684.707 208.67L636.167 181.533L669.037 141.99" fill="url(#paint9_linear)"/>
<path d="M713.991 360.989C714.243 361.313 714.494 361.638 714.725 361.97C714.956 362.302 715.271 362.765 715.54 363.165C715.808 363.565 715.984 363.813 716.181 364.088C716.379 364.363 716.699 364.929 716.964 365.353C717.23 365.777 717.36 365.996 717.545 366.299C717.73 366.602 718.047 367.193 718.29 367.649C718.465 367.956 718.639 368.263 718.819 368.614C719.062 369.07 719.308 369.595 719.511 370.008C719.635 370.334 719.826 370.623 719.97 370.942C720.167 371.461 720.408 371.942 720.633 372.474C720.741 372.76 720.85 373.045 720.954 373.32C721.259 374.126 721.561 374.921 721.866 375.726C725.688 386.754 724.916 397.203 720.525 405.702L710.126 425.937C714.527 417.434 715.288 406.989 711.467 395.961C711.161 395.155 710.86 394.36 710.554 393.555C710.446 393.27 710.338 392.984 710.233 392.709C710.036 392.189 709.847 391.689 709.57 391.176C709.447 390.85 709.262 390.547 709.092 390.192C708.859 389.732 708.647 389.264 708.404 388.808C708.161 388.352 708.065 388.191 707.875 387.843C707.685 387.495 707.393 386.941 707.133 386.503C706.874 386.065 706.738 385.86 706.553 385.557C706.368 385.254 706.036 384.716 705.77 384.292C705.504 383.868 705.326 383.644 705.128 383.369C704.931 383.094 704.592 382.57 704.314 382.174C704.035 381.778 703.817 381.511 703.576 381.183C703.335 380.854 703.021 380.425 702.726 380.047C702.431 379.669 702.199 379.396 701.937 379.075C701.676 378.755 701.355 378.34 701.058 377.986C700.402 377.209 699.715 376.443 699.021 375.692L698.391 375.045C697.886 374.513 697.371 373.986 696.836 373.466C696.556 373.187 696.261 372.902 695.97 372.628C695.68 372.353 695.263 371.963 694.905 371.633C694.546 371.302 694.253 371.052 693.92 370.758C693.587 370.465 693.187 370.115 692.815 369.813L691.74 368.915L690.834 368.186C690.438 367.881 690.043 367.576 689.637 367.275C689.232 366.975 689.032 366.817 688.712 366.589L687.93 366.034C686.783 365.221 685.618 364.427 684.425 363.678L684.199 363.543C683.078 362.802 681.977 362.205 680.84 361.575C680.618 361.449 680.405 361.32 680.187 361.205C679.04 360.579 677.874 359.995 676.691 359.429C676.458 359.307 676.219 359.199 675.98 359.092C674.777 358.534 673.572 358 672.348 357.508C672.303 357.483 672.255 357.462 672.207 357.445C670.902 356.925 669.578 356.448 668.252 355.994L667.332 355.69C666.982 355.567 666.626 355.457 666.269 355.347L664.789 354.918L663.692 354.61L662.298 354.253L660.914 353.927L659.585 353.65C659.112 353.549 658.645 353.458 658.187 353.375L656.947 353.181C656.21 353.064 655.48 352.952 654.756 352.846L653.774 352.717C652.737 352.597 651.708 352.497 650.677 352.422C649.48 352.34 648.243 352.307 647.024 352.292L646.117 352.298C644.896 352.306 643.678 352.325 642.464 352.412C641.497 352.476 640.541 352.57 639.6 352.67L638.715 352.796C638.069 352.878 637.438 352.966 636.814 353.074L635.811 353.256C635.236 353.369 634.661 353.483 634.093 353.616L633.105 353.839C632.528 353.977 631.958 354.135 631.388 354.293L630.545 354.53L628.339 355.262L628.084 355.359C627.289 355.661 626.494 355.962 625.719 356.256L625.006 356.527C624.486 356.724 624.013 356.985 623.513 357.233C623.012 357.481 622.452 357.787 621.932 358.077L621.045 358.565C620.424 358.929 619.836 359.315 619.248 359.701C619.074 359.826 618.892 359.93 618.714 360.044L618.184 360.432C617.698 360.779 617.222 361.123 616.754 361.487L616.063 362.064C615.672 362.387 615.282 362.71 614.909 363.05L614.357 363.562C613.978 363.916 613.603 364.28 613.252 364.646L612.689 365.221L611.561 366.489L611.238 366.868C610.778 367.438 610.333 368.016 609.911 368.595L609.641 368.989C609.308 369.465 608.99 369.948 608.675 370.44L608.358 370.957C607.986 371.576 607.656 372.179 607.306 372.825L617.748 352.609C618.004 352.116 618.274 351.629 618.554 351.138L618.8 350.741L619.127 350.22C619.432 349.732 619.75 349.25 620.083 348.774L620.353 348.38L620.457 348.223C620.849 347.69 621.229 347.184 621.661 346.601L621.994 346.218L622.744 345.339L623.122 344.95L623.675 344.379C624.036 344.009 624.401 343.649 624.78 343.296L625.332 342.783L625.581 342.549C625.877 342.285 626.185 342.051 626.465 341.805L627.166 341.224C627.624 340.864 628.07 340.532 628.596 340.169L629.116 339.785L629.177 339.762C629.35 339.696 629.507 339.555 629.664 339.449C630.253 339.063 630.841 338.676 631.451 338.317L632.348 337.825C632.868 337.534 633.391 337.254 633.929 336.98L634.265 336.853C634.663 336.702 635.06 336.551 635.427 336.319L636.121 335.997C636.906 335.699 637.672 335.351 638.486 335.1L638.741 335.003L640.947 334.272L641.79 334.034C642.36 333.876 642.93 333.718 643.518 333.577L644.495 333.357C645.063 333.224 645.638 333.111 646.213 332.997L647.217 332.815C647.84 332.707 648.472 332.619 649.117 332.537L650.002 332.411C650.954 332.307 651.899 332.217 652.866 332.153C654.081 332.066 655.294 332.037 656.519 332.039L657.426 332.033C658.604 332.064 659.858 332.078 661.079 332.163C662.11 332.238 663.15 332.334 664.176 332.458L665.158 332.587C665.893 332.681 666.612 332.793 667.349 332.922C667.526 332.96 667.706 332.973 667.894 333.007L668.562 333.138L669.957 333.402L671.239 333.709L672.622 334.035L673.326 334.2C673.56 334.263 673.787 334.34 674.017 334.393L675.113 334.7L676.594 335.129L677.667 335.469L678.142 335.615L678.577 335.777C679.913 336.226 681.257 336.696 682.532 337.227L682.644 337.277C683.858 337.773 685.074 338.303 686.267 338.865L686.699 339.051L686.987 339.198C688.16 339.768 689.326 340.352 690.473 340.978L690.72 341.106C690.864 341.18 690.992 341.271 691.126 341.348C692.263 341.978 693.383 342.626 694.485 343.316L694.665 343.423C695.847 344.141 697.023 344.966 698.17 345.778L698.543 346.022L698.962 346.329L699.877 347.02C700.283 347.321 700.679 347.625 701.074 347.93L701.98 348.659C702.166 348.81 702.358 348.947 702.547 349.109C702.737 349.27 702.88 349.402 703.066 349.554L704.16 350.503C704.489 350.786 704.822 351.08 705.145 351.377L706.207 352.362C706.386 352.527 706.565 352.692 706.734 352.862C706.903 353.031 706.965 353.101 707.086 353.206C707.612 353.73 708.127 354.257 708.631 354.789L709.262 355.436C709.955 356.188 710.642 356.953 711.298 357.731C711.595 358.084 711.868 358.435 712.156 358.793L712.94 359.755C713.432 360.221 713.717 360.603 713.991 360.989Z" fill="url(#paint10_linear)"/>
<path d="M701.791 450.66L702.429 450.558C703.53 450.385 704.684 450.169 705.789 449.948L705.881 449.913C706.962 449.69 708.032 449.435 709.098 449.171L709.672 449.023C710.73 448.739 711.723 448.467 712.725 448.157L713.306 447.937C714.348 447.611 715.383 447.265 716.335 446.916L716.478 446.862C717.436 446.498 718.384 446.139 719.332 445.779L719.842 445.586C720.78 445.23 721.679 444.772 722.566 444.343L723.283 443.989L724.435 443.4L725.233 442.981L726.35 442.36L727.115 441.918L728.233 441.237L728.933 440.808L730.146 440.01L730.667 439.661C731.546 439.059 732.404 438.431 733.234 437.79L733.612 437.495C734.414 436.875 735.192 436.219 735.955 435.556L736.375 435.187C737.047 434.594 737.713 433.98 738.349 433.354L738.585 433.113C739.178 432.526 739.744 431.927 740.298 431.297L740.635 430.924C741.183 430.32 741.723 429.695 742.256 429.05L742.591 428.643C743.025 428.094 743.458 427.545 743.867 426.993C743.974 426.848 744.096 426.708 744.19 426.556C744.661 425.922 745.104 425.276 745.539 424.61L745.786 424.213C746.15 423.667 746.527 423.093 746.822 422.549L747.148 421.994C747.524 421.327 747.901 420.659 748.249 419.979L737.783 440.192C737.424 440.876 737.048 441.544 736.671 442.211L736.54 442.448L736.346 442.766C736.009 443.325 735.673 443.884 735.309 444.43L735.057 444.841C734.628 445.493 734.185 446.139 733.714 446.773L733.61 446.929L733.39 447.211C732.985 447.772 732.552 448.321 732.105 448.864L731.78 449.267C731.247 449.912 730.707 450.537 730.158 451.142L730.037 451.281C729.955 451.312 729.888 451.442 729.822 451.514C729.26 452.124 728.684 452.727 728.108 453.33L727.87 453.502C727.233 454.128 726.564 454.732 725.895 455.336L725.679 455.534L725.476 455.705C724.713 456.367 723.935 457.023 723.132 457.643L722.754 457.938C721.915 458.583 721.067 459.207 720.188 459.809L720.116 459.836L719.639 460.146L718.446 460.936L717.746 461.365L716.618 462.049L715.863 462.487L714.757 463.14L713.96 463.559L712.808 464.148L712.331 464.398L712.087 464.491C711.2 464.921 710.285 465.337 709.363 465.734L708.853 465.927C707.905 466.287 706.976 466.697 705.989 467.014L705.846 467.068C704.826 467.455 703.868 467.818 702.816 468.089L702.245 468.305C701.203 468.631 700.22 468.899 699.192 469.172L698.619 469.319C697.553 469.584 696.483 469.838 695.402 470.061L695.331 470.088C694.245 470.302 693.102 470.514 691.97 470.698L691.333 470.8C690.232 470.973 689.12 471.115 688.004 471.246L687.351 471.308C686.176 471.438 684.983 471.553 683.775 471.626C682.567 471.699 681.247 471.757 679.989 471.791L678.834 471.821C677.903 471.824 676.961 471.831 676.022 471.815L674.906 471.795C673.649 471.758 672.39 471.699 671.131 471.617L671.08 471.637C669.488 471.529 667.912 471.369 666.327 471.189L664.818 470.991C663.701 470.844 662.576 470.676 661.458 470.494C661.183 470.446 660.906 470.423 660.622 470.379L659.599 470.173C658.886 470.046 658.166 469.9 657.469 469.814C656.772 469.729 656.101 469.528 655.441 469.417C654.781 469.306 654.013 469.096 653.305 468.921L652.218 468.669L651.161 468.37L649.482 467.911C648.725 467.697 647.963 467.473 647.208 467.234L645.547 466.698L644.802 466.456L643.055 465.847L641.778 465.399C640.713 465.022 639.662 464.616 638.639 464.257L638.064 464.032L638.013 464.052C636.813 463.562 635.633 463.065 634.456 462.544L633.398 462.059L631.584 461.243L630.851 460.879L629.605 460.268C628.816 459.879 628.034 459.476 627.261 459.069C626.852 458.851 626.447 458.643 626.028 458.371L625.376 458.035C624.755 457.688 624.133 457.34 623.514 456.969C623.193 456.799 622.879 456.615 622.568 456.441C621.472 455.796 620.386 455.147 619.317 454.479C619.283 454.451 619.246 454.426 619.207 454.405L618.48 453.934C617.602 453.381 616.733 452.812 615.874 452.229L614.727 451.416C614.241 451.087 613.758 450.769 613.289 450.422C613.069 450.273 612.865 450.105 612.655 449.951C612.175 449.609 611.702 449.252 611.242 448.901C610.783 448.551 610.004 447.972 609.401 447.489C608.798 447.006 608.47 446.758 608.013 446.383C607.724 446.143 607.418 445.921 607.129 445.68L606.349 445.008C605.771 444.528 605.212 444.04 604.634 443.56L603.115 442.2C602.563 441.698 602.022 441.192 601.48 440.687C601.217 440.425 600.928 440.185 600.666 439.923C600.403 439.661 600.316 439.554 600.133 439.378C599.321 438.59 598.535 437.78 597.746 436.96L596.794 435.957C595.715 434.804 594.667 433.639 593.678 432.475L593.651 432.403C593.194 431.877 592.775 431.324 592.335 430.78C591.896 430.235 591.523 429.806 591.133 429.3C590.743 428.795 590.253 428.118 589.812 427.539C589.371 426.96 589.06 426.542 588.705 426.035C588.349 425.528 587.876 424.833 587.452 424.178C587.029 423.522 586.742 423.165 586.413 422.636C586.084 422.108 585.645 421.412 585.272 420.795C584.898 420.179 584.604 419.743 584.3 419.217C583.995 418.691 583.566 417.897 583.201 417.243C582.925 416.73 582.628 416.224 582.356 415.721C581.974 414.991 581.633 414.246 581.276 413.519C581.094 413.04 580.814 412.609 580.592 412.146C580.213 411.333 579.872 410.494 579.521 409.66C579.374 409.273 579.176 408.905 579.015 408.511C578.547 407.277 578.083 406.054 577.615 404.82C571.736 387.845 572.92 371.782 579.682 358.711L590.12 338.485C583.354 351.546 582.178 367.629 588.067 384.601C588.535 385.834 588.999 387.058 589.467 388.291C589.621 388.699 589.827 389.087 589.992 389.491C590.305 390.317 590.68 391.12 591.054 391.922C591.247 392.432 591.532 392.907 591.777 393.397C592.122 394.094 592.448 394.798 592.814 395.487C593.084 396.015 593.385 396.53 593.675 397.05C593.965 397.57 594.381 398.357 594.744 398.977C595.107 399.597 595.387 400.027 595.712 400.545C596.037 401.063 596.463 401.788 596.873 402.437C597.282 403.086 597.571 403.478 597.926 403.985C598.282 404.492 598.725 405.198 599.145 405.785C599.566 406.372 599.891 406.797 600.266 407.295C600.642 407.794 601.122 408.475 601.573 409.05C602.025 409.625 602.376 410.029 602.776 410.53C603.176 411.031 603.671 411.66 604.149 412.213C605.164 413.414 606.212 414.579 607.265 415.695C607.579 416.031 607.903 416.363 608.227 416.695C609.022 417.559 609.802 418.325 610.604 419.117C611.049 419.554 611.49 419.947 611.961 420.421C612.433 420.895 613.034 421.437 613.586 421.939C614.138 422.441 614.593 422.84 615.101 423.288C615.609 423.737 616.232 424.27 616.82 424.747L618.505 426.113C618.962 426.488 619.429 426.859 619.892 427.22C620.505 427.698 621.114 428.167 621.734 428.632C622.353 429.097 622.667 429.339 623.147 429.682C623.826 430.182 624.522 430.664 625.222 431.157L626.376 431.955C627.224 432.531 628.093 433.1 628.972 433.664L629.698 434.135C630.829 434.872 631.931 435.504 633.06 436.172L634.006 436.699C634.84 437.176 635.67 437.642 636.512 438.081C636.911 438.303 637.316 438.51 637.722 438.718C638.498 439.135 639.277 439.528 640.065 439.917L641.316 440.538C642.157 440.942 643.004 441.332 643.862 441.718L644.921 442.203C646.122 442.727 647.334 443.247 648.544 443.732L649.105 443.951C650.161 444.367 651.212 444.772 652.277 445.15L653.555 445.598C654.374 445.882 655.185 446.146 656.028 446.433L657.679 446.972C658.434 447.211 659.196 447.435 659.953 447.649L661.632 448.109C662.347 448.304 663.065 448.475 663.776 448.66C664.488 448.845 665.198 448.995 665.912 449.156C666.626 449.316 667.273 449.456 667.95 449.549C668.627 449.642 669.376 449.836 670.07 449.911L671.929 450.232C673.047 450.414 674.161 450.551 675.289 450.73L676.799 450.927C678.383 451.107 679.97 451.263 681.561 451.371C682.763 451.463 684.072 451.503 685.319 451.532C685.699 451.551 686.072 451.549 686.489 451.543C687.428 451.56 688.36 451.556 689.291 451.553L690.446 451.523C691.715 451.485 692.969 451.441 694.232 451.358C695.495 451.275 696.633 451.17 697.818 451.036L698.457 450.968C699.579 450.974 700.691 450.832 701.791 450.66Z" fill="url(#paint11_linear)"/>
<path d="M694.213 451.493C738.926 448.527 764.087 413.715 750.281 373.87C736.475 334.026 688.796 303.996 644.115 306.927C599.435 309.857 574.241 344.705 588.051 384.56C601.861 424.414 649.481 454.442 694.213 451.493ZM652.876 332.208C681.963 330.283 712.93 349.824 721.92 375.741C730.91 401.658 714.542 424.297 685.456 426.222C656.369 428.147 625.368 408.607 616.404 382.668C607.441 356.729 623.778 334.102 652.869 332.188" fill="url(#paint12_linear)"/>
<path d="M539.539 293.274C539.644 293.55 539.805 293.791 539.92 294.063C539.951 294.129 539.976 294.197 539.997 294.267L540.047 294.399C540.285 294.934 540.493 295.482 540.67 296.04L540.712 296.153C540.727 296.205 540.746 296.257 540.77 296.306C540.952 296.785 541.022 297.306 541.108 297.81C541.108 297.81 541.127 297.861 541.135 297.881C541.198 298.324 541.243 298.75 541.278 299.18L541.292 299.373C541.312 299.416 541.328 299.46 541.343 299.505C541.367 299.94 541.368 300.375 541.348 300.809V300.809C541.33 301.131 541.298 301.446 541.266 301.762L538.264 325.3C538.303 324.971 538.341 324.642 538.359 324.32C538.38 323.882 538.377 323.443 538.35 323.006C538.35 322.895 538.343 322.785 538.33 322.675C538.305 322.24 538.257 321.807 538.187 321.377C538.18 321.345 538.169 321.314 538.152 321.285C538.066 320.782 537.951 320.285 537.809 319.794L537.704 319.519C537.529 318.964 537.322 318.42 537.086 317.888C537.043 317.776 537.001 317.664 536.958 317.552C536.854 317.276 536.753 317.011 536.577 316.763C536.402 316.515 536.485 316.519 536.383 316.405C536.185 316.037 535.977 315.673 535.735 315.31C535.455 314.88 535.145 314.461 534.824 314.047L534.591 313.739C534.246 313.321 533.905 312.914 533.533 312.519C533.151 312.127 532.745 311.733 532.329 311.343L532.01 311.056C531.574 310.673 531.131 310.305 530.654 309.938C530.016 309.457 529.36 309.018 528.683 308.586C528.393 308.405 528.092 308.227 527.796 308.06C527.499 307.893 527.431 307.837 527.241 307.734C526.842 307.512 526.426 307.308 526.011 307.104C525.885 307.034 525.756 306.97 525.623 306.913C525.507 306.852 525.398 306.812 525.272 306.755C524.695 306.496 524.098 306.244 523.499 306.016L522.729 305.737C522.326 305.598 521.924 305.46 521.515 305.335L520.659 305.076L519.599 304.802L518.679 304.591L517.684 304.397L516.711 304.23L515.74 304.097L514.765 303.988C514.426 303.954 514.09 303.93 513.758 303.915C513.443 303.883 513.125 303.876 512.804 303.858L511.712 303.84L510.815 303.842L509.545 303.904C509.283 303.922 509.018 303.929 508.75 303.961C508.014 304.019 507.275 304.101 506.518 304.225C505.76 304.349 505.425 304.418 504.823 304.553L504.331 304.669L503.34 304.917C502.569 305.128 501.795 305.363 501.051 305.645C499.098 306.353 497.249 307.321 495.554 308.523C493.755 309.706 492.224 311.255 491.062 313.068C489.899 314.881 489.131 316.918 488.806 319.047L491.797 295.512C492.122 293.383 492.89 291.346 494.053 289.533C495.215 287.72 496.746 286.171 498.545 284.988C500.243 283.784 502.095 282.815 504.052 282.106C504.8 281.827 505.562 281.589 506.335 281.392L506.61 281.288L507.318 281.124L507.81 281.007C508.371 280.888 508.895 280.794 509.494 280.683C510.218 280.561 510.946 280.483 511.723 280.41L511.896 280.344L512.492 280.316L513.763 280.254L514.087 280.248L514.66 280.252L515.751 280.269L516.152 280.281L516.706 280.327L517.713 280.4L518.135 280.438C518.315 280.451 518.503 280.485 518.687 280.508L519.669 280.638L520.089 280.7L520.632 280.809L521.626 281.003L522.054 281.085C522.221 281.127 522.382 281.182 522.546 281.214L523.606 281.488C523.753 281.537 523.917 281.568 524.06 281.607L524.472 281.742L525.676 282.149C525.847 282.201 526.018 282.252 526.183 282.318L526.446 282.428C527.046 282.655 527.643 282.907 528.219 283.167L528.511 283.289L528.581 283.321C528.707 283.378 528.828 283.449 528.958 283.516C529.374 283.72 529.789 283.924 530.188 284.146L530.753 284.468L531.411 284.848L531.635 285.008C532.307 285.429 532.978 285.875 533.601 286.349C534.224 286.824 534.525 287.095 534.958 287.467L535.277 287.755C535.693 288.145 536.109 288.535 536.481 288.93C536.852 289.326 537.207 289.739 537.538 290.15C537.581 290.262 537.698 290.358 537.782 290.454C538.102 290.869 538.402 291.292 538.682 291.722C538.921 292.075 539.129 292.439 539.341 292.813C539.416 293.041 539.472 293.16 539.539 293.274Z" fill="url(#paint13_linear)"/>
<path d="M525.941 338.769C527.897 338.06 529.75 337.09 531.448 335.887C540.896 329.132 540.53 317.528 530.618 309.965C522.428 303.743 510.35 302.213 501.056 305.657C499.103 306.364 497.254 307.332 495.559 308.535C486.101 315.294 486.467 326.897 496.389 334.457C504.545 340.681 516.647 342.212 525.941 338.769Z" fill="url(#paint14_linear)"/>
<path d="M510.407 496.24C510.565 496.658 510.801 497.035 511.027 497.415C511.116 497.65 511.303 497.835 511.433 498.054C511.563 498.273 511.85 498.724 512.077 499.046C512.304 499.368 512.438 499.504 512.62 499.738C512.802 499.972 513.051 500.321 513.302 500.646C513.788 501.219 514.311 501.767 514.854 502.308L515.535 502.935L516.348 503.665C516.641 503.904 516.94 504.14 517.246 504.374C517.45 504.541 517.65 504.699 517.859 504.852C518.297 505.176 518.751 505.482 519.212 505.774C519.286 505.816 519.354 505.871 519.432 505.924C519.966 506.257 520.507 506.577 521.061 506.868C521.223 506.958 521.392 507.034 521.551 507.114C521.946 507.325 522.358 507.519 522.769 507.713L523.384 507.981C523.76 508.142 524.146 508.299 524.538 508.441L525.214 508.686C525.588 508.813 525.963 508.939 526.343 509.051L527.105 509.275C527.429 509.362 527.756 509.425 528.087 509.497C528.418 509.57 528.781 509.666 529.128 509.721L529.871 509.835C530.416 509.92 530.954 509.984 531.497 510.035L532.584 510.101L533.13 510.127C533.737 510.13 534.304 510.148 534.957 510.087C535.61 510.026 536.363 509.95 537.031 509.836L537.671 509.71C538.127 509.619 538.564 509.512 538.997 509.394L539.67 509.139C540.058 508.992 540.435 508.849 540.812 508.706L541.464 508.458C541.952 508.24 542.428 507.998 542.891 507.731L543.054 507.669C543.431 507.432 543.79 507.18 544.145 506.917C544.352 506.757 544.553 506.61 544.747 506.444C544.94 506.277 545.316 505.948 545.619 505.67L545.984 505.31C546.354 504.918 546.699 504.503 547.017 504.067L547.134 503.883C547.443 503.441 547.724 502.98 547.974 502.502L513.585 568.906L513.289 569.449C513.118 569.736 512.929 570.006 512.74 570.276C512.701 570.341 512.659 570.404 512.613 570.464V570.464C512.341 570.824 512.066 571.173 511.762 571.51L511.616 571.647L511.251 572.007C511.075 572.19 510.9 572.373 510.707 572.54L510.408 572.828L509.812 573.287C509.669 573.4 509.539 573.519 509.381 573.626L508.722 574.039L508.548 574.105C508.209 574.316 507.857 574.508 507.495 574.679L507.118 574.822L506.465 575.07C506.098 575.209 505.711 575.356 505.324 575.503L504.661 575.754C504.243 575.912 503.786 575.969 503.331 576.06L502.695 576.196C502.023 576.3 501.326 576.401 500.607 576.44C499.887 576.48 499.391 576.493 498.78 576.48L498.247 576.461L497.563 576.44C497.451 576.483 497.293 576.403 497.157 576.384C496.617 576.344 496.076 576.27 495.535 576.195C495.371 576.164 495.195 576.161 495.032 576.129L494.792 576.081C494.44 576.016 494.096 575.936 493.751 575.857L493.002 575.698L492.765 575.625C492.507 575.56 492.255 575.48 492.003 575.401C491.752 575.321 491.483 575.26 491.228 575.17L490.868 575.05L490.188 574.795L489.592 574.578L489.048 574.341L488.419 574.067L488.053 573.902C487.768 573.765 487.489 573.614 487.215 573.474L486.725 573.228L486.566 573.148C486.079 572.878 485.598 572.594 485.083 572.312C485.005 572.268 484.932 572.218 484.863 572.162C484.452 571.909 484.048 571.643 483.66 571.359L483.514 571.251C483.305 571.097 483.101 570.929 482.901 570.772C482.702 570.614 482.418 570.419 482.182 570.228C482.125 570.166 482.063 570.108 481.999 570.053C481.714 569.823 481.455 569.571 481.186 569.324C480.917 569.076 480.811 569.011 480.642 568.842C480.473 568.673 480.599 568.73 480.505 568.696C479.965 568.166 479.443 567.618 478.957 567.044C478.725 566.77 478.524 566.485 478.298 566.198C478.072 565.91 477.938 565.74 477.77 565.512C477.602 565.284 477.354 564.877 477.159 564.577C476.964 564.278 476.861 564.131 476.727 563.901C476.594 563.672 476.339 563.186 476.159 562.834C475.979 562.483 475.928 562.409 475.837 562.199C475.576 561.618 475.35 561.022 475.16 560.415C474.472 558.635 474.158 556.733 474.238 554.827C474.317 552.921 474.789 551.052 475.622 549.336L509.905 482.927C509.067 484.641 508.593 486.511 508.513 488.418C508.434 490.324 508.75 492.227 509.442 494.005C509.636 494.608 509.86 495.2 510.115 495.779C510.216 495.892 510.327 496.06 510.407 496.24Z" fill="url(#paint15_linear)"/>
<path d="M534.94 510.037C545.701 509.326 551.744 500.97 548.423 491.385C545.103 481.8 533.67 474.592 522.894 475.297C512.119 476.002 506.096 484.35 509.425 493.956C512.753 503.561 524.178 510.749 534.94 510.037Z" fill="url(#paint16_linear)"/>
<path d="M608.891 95.1637C609.25 95.0936 609.605 95.002 609.953 94.8891L610.513 94.6765C610.815 94.5797 611.111 94.4674 611.4 94.3401C611.585 94.2503 611.766 94.1508 611.94 94.042C612.197 93.9004 612.445 93.744 612.684 93.5735L613.172 93.2015L613.851 92.5941L614.301 92.1203L614.66 91.6813C614.877 91.4027 615.078 91.1122 615.263 90.8112V90.8112L539.672 219.065C539.559 219.26 539.436 219.458 539.299 219.65L539.059 219.939C538.948 220.092 538.828 220.238 538.701 220.378L538.514 220.624L538.261 220.848C538.039 221.061 537.812 221.263 537.572 221.459L537.329 221.68C537.253 221.734 537.175 221.783 537.093 221.827C536.855 221.999 536.61 222.151 536.354 222.306L535.804 222.608C535.517 222.734 535.225 222.845 534.927 222.941C534.744 223.022 534.557 223.093 534.366 223.153C534.03 223.281 533.666 223.337 533.304 223.428L532.808 223.534C532.263 223.633 531.712 223.69 531.159 223.705V223.705C530.618 223.718 530.076 223.697 529.538 223.644L529.368 223.626C529.257 223.61 529.152 223.58 529.045 223.574C528.736 223.528 528.427 223.482 528.11 223.415L527.947 223.384L527.588 223.299L526.911 223.112C526.841 223.081 526.768 223.073 526.687 223.046L526.362 222.924L525.766 222.707L525.535 222.62C525.426 222.579 525.334 222.521 525.236 222.477C525.137 222.432 524.842 222.3 524.651 222.197C524.567 222.165 524.486 222.125 524.408 222.079C524.324 222.041 524.246 221.989 524.158 221.941C524.07 221.893 523.755 221.709 523.543 221.58L523.288 221.431L523.114 221.311C522.858 221.128 522.602 220.945 522.353 220.748C522.269 220.699 522.19 220.644 522.115 220.582C522.115 220.582 522.095 220.531 522.088 220.511C521.688 220.187 521.308 219.841 520.948 219.474C520.948 219.474 520.921 219.402 520.855 219.381C520.75 219.281 520.655 219.173 520.569 219.058L520.215 218.679C520.084 218.518 519.964 218.354 519.833 218.194C519.702 218.034 519.625 217.923 519.527 217.786C519.428 217.648 519.292 217.443 519.181 217.275L518.912 216.841C518.842 216.657 518.769 216.464 518.624 216.297L518.389 215.862C518.315 215.668 518.242 215.474 518.168 215.281C518.095 215.087 518.056 214.985 517.998 214.832C517.94 214.679 517.844 214.424 517.766 214.22L517.612 213.813C517.526 213.588 517.513 213.337 517.468 213.097C517.424 212.857 517.383 212.873 517.392 212.741C517.346 212.374 517.3 212.007 517.28 211.618C517.237 210.713 517.325 209.808 517.543 208.929C517.749 208.093 518.073 207.291 518.506 206.547L594.106 78.289C593.206 79.8231 592.777 81.5876 592.871 83.3636C592.889 83.739 592.93 84.113 592.992 84.4836C593.035 84.5957 593.078 84.7078 593.059 84.8432C593.04 84.9785 593.147 85.3227 593.206 85.5687C593.264 85.8148 593.306 85.8338 593.357 85.9663C593.407 86.0988 593.515 86.3843 593.592 86.5882C593.67 86.7921 593.705 86.8838 593.759 87.0265C593.813 87.1693 593.91 87.4241 593.983 87.6178C594.056 87.8115 594.099 87.9236 594.208 88.0572C594.317 88.1908 594.351 88.4344 594.496 88.601C594.641 88.7677 594.673 88.8837 594.772 89.0211C594.871 89.1586 594.986 89.3712 595.107 89.5354C595.227 89.6996 595.315 89.8065 595.413 89.9439C595.512 90.0813 595.665 90.2683 595.795 90.4286L596.153 90.8178C596.276 90.9577 596.399 91.0976 596.528 91.2235C596.888 91.5884 597.275 91.9314 597.668 92.2605L597.978 92.4929C598.229 92.685 598.485 92.8678 598.745 93.0413C598.887 93.139 599.029 93.2367 599.178 93.3204L599.783 93.6856L600.276 93.9416C600.467 94.0442 600.664 94.1328 600.86 94.2214L601.391 94.4517L601.986 94.6689L602.532 94.8468L603.204 94.9885L603.73 95.1154C604.033 95.1755 604.345 95.2317 604.661 95.2637C604.976 95.2957 604.988 95.3263 605.157 95.3436C605.698 95.3967 606.242 95.4126 606.785 95.3911C607.339 95.3796 607.892 95.3259 608.438 95.2305C608.575 95.2835 608.728 95.2255 608.891 95.1637Z" fill="url(#paint17_linear)"/>
<path d="M605.128 95.4225C611.655 96.0603 616.727 91.723 616.472 85.7326C616.218 79.7422 610.725 74.3623 604.198 73.7245C597.671 73.0867 592.604 77.4342 592.858 83.4246C593.113 89.415 598.596 94.74 605.128 95.4225Z" fill="url(#paint18_linear)"/>
<path d="M450.53 370.345L439.629 374.316L505.519 398.405L516.434 394.44L450.53 370.345Z" fill="url(#paint19_linear)"/>
<path d="M516.435 394.44L505.52 398.405L458.788 448.162L469.699 444.187L516.435 394.44Z" fill="url(#paint20_linear)"/>
<path d="M432.937 350.092L422.032 354.054L453.081 473.73L463.996 469.765L432.937 350.092Z" fill="url(#paint21_linear)"/>
<path d="M463.994 469.764L539.736 389.134L432.925 350.095L463.994 469.764ZM469.681 444.145L450.513 370.302L516.417 394.398L469.681 444.145Z" fill="url(#paint22_linear)"/>
<path d="M398.513 447.305L382.234 438.542L369.412 446.18L385.687 454.933L398.513 447.305Z" fill="url(#paint23_linear)"/>
<path d="M385.688 454.934L369.413 446.181L368.498 648.343L384.773 657.096L385.688 454.934Z" fill="url(#paint24_linear)"/>
<path d="M397.595 649.457L398.514 447.306L385.688 454.934L384.773 657.096L397.595 649.457Z" fill="url(#paint25_linear)"/>
<path d="M376.717 251.737L364.508 265.942L360.6 298.617L372.808 284.413L376.717 251.737Z" fill="url(#paint26_linear)"/>
<path d="M372.809 284.415L360.6 298.619L395.068 307.561L407.277 293.357L372.809 284.415Z" fill="url(#paint27_linear)"/>
<path d="M407.277 293.356L411.176 260.684L376.718 251.738L372.809 284.413L407.277 293.356Z" fill="url(#paint28_linear)"/>
<path d="M287.497 527.784L254.63 536.437L269.665 551.328L302.532 542.675L287.497 527.784Z" fill="url(#paint29_linear)"/>
<path d="M302.531 542.675L269.664 551.328L271.892 583.857L304.773 575.21L302.531 542.675Z" fill="url(#paint30_linear)"/>
<path d="M271.892 583.857L269.665 551.329L254.63 536.438L256.847 568.971L271.892 583.857Z" fill="url(#paint31_linear)"/>
<path d="M161.757 560.381L128.89 569.033L143.925 583.924L176.791 575.271L161.757 560.381Z" fill="url(#paint32_linear)"/>
<path d="M176.791 575.272L143.924 583.924L146.152 616.453L179.033 607.806L176.791 575.272Z" fill="url(#paint33_linear)"/>
<path d="M146.152 616.454L143.925 583.925L128.89 569.034L131.107 601.567L146.152 616.454Z" fill="url(#paint34_linear)"/>
<path d="M676.509 32.1972L643.628 40.8436L658.667 55.7444L691.544 47.0878L676.509 32.1972Z" fill="url(#paint35_linear)"/>
<path d="M691.545 47.0895L658.668 55.7461L660.896 88.2747L693.777 79.6282L691.545 47.0895Z" fill="url(#paint36_linear)"/>
<path d="M660.894 88.2734L658.666 55.7448L643.628 40.8439L645.859 73.3827L660.894 88.2734Z" fill="url(#paint37_linear)"/>
<path d="M460.223 123.808L431.035 134.598L444.251 222.476L473.438 211.686L460.223 123.808Z" fill="url(#paint38_linear)"/>
<path d="M351.681 177.42L322.494 188.211L475.1 267.042L504.288 256.251L351.681 177.42Z" fill="url(#paint39_linear)"/>
<path d="M477.058 75.2234L447.874 86.0241L322.493 188.21L351.681 177.42L477.058 75.2234Z" fill="url(#paint40_linear)"/>
<path d="M504.287 256.251L477.05 75.2032L351.68 177.42L504.287 256.251ZM399.377 173.462L460.213 123.813L473.428 211.691L399.377 173.462Z" fill="url(#paint41_linear)"/>
<g style="mix-blend-mode:multiply" opacity="0.74">
<path style="mix-blend-mode:multiply" opacity="0.74" d="M477.056 75.2225L447.872 86.0232L322.491 188.209L351.679 177.419L477.056 75.2225Z" fill="url(#paint42_linear)"/>
</g>
<path d="M735.46 257.227L719.184 248.474L572.303 238.171L588.582 246.934L735.46 257.227Z" fill="url(#paint43_linear)"/>
<path d="M588.581 246.933L572.302 238.17L566.022 255.338L582.301 264.101L588.581 246.933Z" fill="url(#paint44_linear)"/>
<path d="M729.189 274.391L735.459 257.226L588.581 246.934L582.301 264.102L729.189 274.391Z" fill="url(#paint45_linear)"/>
<g style="mix-blend-mode:multiply" opacity="0.59">
<path style="mix-blend-mode:multiply" opacity="0.59" d="M588.581 246.933L572.302 238.17L566.022 255.338L582.301 264.101L588.581 246.933Z" fill="url(#paint46_linear)"/>
</g>
<path d="M573.668 469.402L642.638 528.577" stroke="url(#paint47_linear)" stroke-width="2" stroke-miterlimit="10"/>
<path d="M334.819 583.466L269.504 646.638" stroke="url(#paint48_linear)" stroke-width="2" stroke-miterlimit="10"/>
<path d="M513.818 359.227L593.489 315.517" stroke="url(#paint49_linear)" stroke-width="2" stroke-miterlimit="10"/>
<path d="M354.135 230.408L294.75 247.113" stroke="url(#paint50_linear)" stroke-width="2" stroke-miterlimit="10"/>
<path d="M396.697 387.789L423.01 443.576" stroke="url(#paint51_linear)" stroke-width="2" stroke-miterlimit="10"/>
<path d="M560.616 86.2561L502.42 106.708" stroke="url(#paint52_linear)" stroke-width="2" stroke-miterlimit="10"/>
<path d="M596.923 192.708L570.646 214.894" stroke="url(#paint53_linear)" stroke-width="2" stroke-miterlimit="10"/>
<path d="M456.756 489.046L445.105 521.416" stroke="url(#paint54_linear)" stroke-width="2" stroke-miterlimit="10"/>
</g>
<defs>
<linearGradient id="paint0_linear" x1="243.199" y1="368.599" x2="328.546" y2="336.228" gradientUnits="userSpaceOnUse">
<stop stop-color="#FF80AB"/>
<stop offset="0.99" stop-color="#40C4FF"/>
</linearGradient>
<linearGradient id="paint1_linear" x1="272.559" y1="382.793" x2="300.731" y2="457.069" gradientUnits="userSpaceOnUse">
<stop stop-color="#FF4081"/>
<stop offset="0.99" stop-color="#00B0FF"/>
</linearGradient>
<linearGradient id="paint2_linear" x1="-5207.52" y1="-37491.7" x2="-2352.56" y2="-38574.6" gradientUnits="userSpaceOnUse">
<stop stop-color="#FF4081"/>
<stop offset="0.99" stop-color="#00B0FF"/>
</linearGradient>
<linearGradient id="paint3_linear" x1="711.887" y1="-26052.4" x2="16002.3" y2="-31851.8" gradientUnits="userSpaceOnUse">
<stop stop-color="#FF80AB"/>
<stop offset="0.99" stop-color="#40C4FF"/>
</linearGradient>
<linearGradient id="paint4_linear" x1="-13854.5" y1="-53959.6" x2="3465.5" y2="-60528.8" gradientUnits="userSpaceOnUse">
<stop stop-color="#FF4081"/>
<stop offset="0.99" stop-color="#00B0FF"/>
</linearGradient>
<linearGradient id="paint5_linear" x1="641.715" y1="196.162" x2="679.343" y2="181.891" gradientUnits="userSpaceOnUse">
<stop offset="0.01" stop-color="#00B0FF"/>
<stop offset="1" stop-color="#FFEA00"/>
</linearGradient>
<linearGradient id="paint6_linear" x1="678.215" y1="191.554" x2="724.263" y2="174.089" gradientUnits="userSpaceOnUse">
<stop stop-color="#FFEA00"/>
<stop offset="0.99" stop-color="#00B0FF"/>
</linearGradient>
<linearGradient id="paint7_linear" x1="22914.8" y1="-25612.4" x2="26690.7" y2="-27044.5" gradientUnits="userSpaceOnUse">
<stop offset="0.01" stop-color="#00B0FF"/>
<stop offset="1" stop-color="#FFEA00"/>
</linearGradient>
<linearGradient id="paint8_linear" x1="17878.7" y1="-31805" x2="20369.5" y2="-32749.7" gradientUnits="userSpaceOnUse">
<stop stop-color="#FFEA00"/>
<stop offset="0.99" stop-color="#00B0FF"/>
</linearGradient>
<linearGradient id="paint9_linear" x1="624.849" y1="195.073" x2="728.903" y2="155.607" gradientUnits="userSpaceOnUse">
<stop stop-color="#FFFF8D"/>
<stop offset="0.99" stop-color="#40C4FF"/>
</linearGradient>
<linearGradient id="paint10_linear" x1="618.26" y1="401.799" x2="717.543" y2="364.143" gradientUnits="userSpaceOnUse">
<stop stop-color="#FFEA00"/>
<stop offset="0.99" stop-color="#D500F9"/>
</linearGradient>
<linearGradient id="paint11_linear" x1="42517.3" y1="-38239.2" x2="62901.3" y2="-45970.5" gradientUnits="userSpaceOnUse">
<stop stop-color="#FFEA00"/>
<stop offset="0.99" stop-color="#D500F9"/>
</linearGradient>
<linearGradient id="paint12_linear" x1="641.488" y1="440.717" x2="696.84" y2="317.702" gradientUnits="userSpaceOnUse">
<stop stop-color="#FFFF8D"/>
<stop offset="0.99" stop-color="#E040FB"/>
</linearGradient>
<linearGradient id="paint13_linear" x1="11312.9" y1="-18292.2" x2="14068" y2="-19337.2" gradientUnits="userSpaceOnUse">
<stop stop-color="#FF80AB"/>
<stop offset="0.99" stop-color="#40C4FF"/>
</linearGradient>
<linearGradient id="paint14_linear" x1="9984.84" y1="-13688.7" x2="11893.5" y2="-14412.6" gradientUnits="userSpaceOnUse">
<stop stop-color="#FF4081"/>
<stop offset="0.99" stop-color="#00B0FF"/>
</linearGradient>
<linearGradient id="paint15_linear" x1="468.859" y1="543.925" x2="551.729" y2="512.494" gradientUnits="userSpaceOnUse">
<stop stop-color="#40C4FF"/>
<stop offset="0.99" stop-color="#69F0AE"/>
</linearGradient>
<linearGradient id="paint16_linear" x1="522.263" y1="507.452" x2="535.571" y2="477.882" gradientUnits="userSpaceOnUse">
<stop stop-color="#00B0FF"/>
<stop offset="0.99" stop-color="#69F0AE"/>
</linearGradient>
<linearGradient id="paint17_linear" x1="29931.3" y1="-56866.3" x2="45553.1" y2="-62791.4" gradientUnits="userSpaceOnUse">
<stop stop-color="#FFFF8D"/>
<stop offset="0.99" stop-color="#E040FB"/>
</linearGradient>
<linearGradient id="paint18_linear" x1="6751.33" y1="-12821.3" x2="7221.06" y2="-12619.9" gradientUnits="userSpaceOnUse">
<stop stop-color="#FFEA00"/>
<stop offset="0.99" stop-color="#D500F9"/>
</linearGradient>
<linearGradient id="paint19_linear" x1="11335" y1="-13734.3" x2="14922.2" y2="-15094.9" gradientUnits="userSpaceOnUse">
<stop stop-color="#FFEA00"/>
<stop offset="0.99" stop-color="#00B0FF"/>
</linearGradient>
<linearGradient id="paint20_linear" x1="14160.1" y1="-10181.7" x2="18724.1" y2="-11912.7" gradientUnits="userSpaceOnUse">
<stop stop-color="#FFEA00"/>
<stop offset="0.99" stop-color="#00B0FF"/>
</linearGradient>
<linearGradient id="paint21_linear" x1="-5086.04" y1="-30037.3" x2="-159.331" y2="-17047.8" gradientUnits="userSpaceOnUse">
<stop offset="0.01" stop-color="#00B0FF"/>
<stop offset="1" stop-color="#FFEA00"/>
</linearGradient>
<linearGradient id="paint22_linear" x1="13638" y1="-24024" x2="18923" y2="-33083.4" gradientUnits="userSpaceOnUse">
<stop stop-color="#FFFF8D"/>
<stop offset="0.99" stop-color="#40C4FF"/>
</linearGradient>
<linearGradient id="paint23_linear" x1="371.416" y1="451.495" x2="396.495" y2="441.983" gradientUnits="userSpaceOnUse">
<stop stop-color="#D500F9"/>
<stop offset="0.99" stop-color="#2979FF"/>
</linearGradient>
<linearGradient id="paint24_linear" x1="402.033" y1="-19493.3" x2="6548.75" y2="-21824.7" gradientUnits="userSpaceOnUse">
<stop stop-color="#D500F9"/>
<stop offset="0.99" stop-color="#2979FF"/>
</linearGradient>
<linearGradient id="paint25_linear" x1="350.856" y1="567.671" x2="432.431" y2="536.731" gradientUnits="userSpaceOnUse">
<stop stop-color="#EA80FC"/>
<stop offset="0.99" stop-color="#40C4FF"/>
</linearGradient>
<linearGradient id="paint26_linear" x1="353.841" y1="280.797" x2="383.476" y2="269.557" gradientUnits="userSpaceOnUse">
<stop offset="0.01" stop-color="#D500F9"/>
<stop offset="1" stop-color="#FFEA00"/>
</linearGradient>
<linearGradient id="paint27_linear" x1="5279.37" y1="-11335.8" x2="7055.46" y2="-12009.4" gradientUnits="userSpaceOnUse">
<stop stop-color="#FFEA00"/>
<stop offset="0.99" stop-color="#D500F9"/>
</linearGradient>
<linearGradient id="paint28_linear" x1="3167.32" y1="-18175" x2="4849.37" y2="-18813" gradientUnits="userSpaceOnUse">
<stop stop-color="#FFFF8D"/>
<stop offset="0.99" stop-color="#E040FB"/>
</linearGradient>
<linearGradient id="paint29_linear" x1="102.572" y1="-2684.62" x2="1657.11" y2="-3274.23" gradientUnits="userSpaceOnUse">
<stop stop-color="#FFEA00"/>
<stop offset="0.99" stop-color="#D500F9"/>
</linearGradient>
<linearGradient id="paint30_linear" x1="159.598" y1="-2938.15" x2="704.966" y2="-4614.19" gradientUnits="userSpaceOnUse">
<stop stop-color="#FFFF8D"/>
<stop offset="0.99" stop-color="#E040FB"/>
</linearGradient>
<linearGradient id="paint31_linear" x1="-1678.66" y1="-5295.87" x2="-1393.33" y2="-5404.09" gradientUnits="userSpaceOnUse">
<stop stop-color="#FFEA00"/>
<stop offset="0.99" stop-color="#D500F9"/>
</linearGradient>
<linearGradient id="paint32_linear" x1="-23.1682" y1="-2652.02" x2="1531.37" y2="-3241.63" gradientUnits="userSpaceOnUse">
<stop stop-color="#FFEA00"/>
<stop offset="0.99" stop-color="#D500F9"/>
</linearGradient>
<linearGradient id="paint33_linear" x1="33.8573" y1="-2905.55" x2="579.226" y2="-4581.59" gradientUnits="userSpaceOnUse">
<stop stop-color="#FFFF8D"/>
<stop offset="0.99" stop-color="#E040FB"/>
</linearGradient>
<linearGradient id="paint34_linear" x1="-1804.4" y1="-5263.27" x2="-1519.07" y2="-5371.49" gradientUnits="userSpaceOnUse">
<stop stop-color="#FFEA00"/>
<stop offset="0.99" stop-color="#D500F9"/>
</linearGradient>
<linearGradient id="paint35_linear" x1="17776.8" y1="-17025.8" x2="19332.2" y2="-17615.7" gradientUnits="userSpaceOnUse">
<stop stop-color="#FF4081"/>
<stop offset="0.99" stop-color="#00B0FF"/>
</linearGradient>
<linearGradient id="paint36_linear" x1="16537" y1="-21205.2" x2="18142.1" y2="-21814" gradientUnits="userSpaceOnUse">
<stop stop-color="#FF80AB"/>
<stop offset="0.99" stop-color="#40C4FF"/>
</linearGradient>
<linearGradient id="paint37_linear" x1="643.312" y1="40.9638" x2="661.21" y2="88.1535" gradientUnits="userSpaceOnUse">
<stop offset="0.01" stop-color="#00B0FF"/>
<stop offset="1" stop-color="#FF4081"/>
</linearGradient>
<linearGradient id="paint38_linear" x1="1754.76" y1="-36897.7" x2="3892.23" y2="-37708.4" gradientUnits="userSpaceOnUse">
<stop stop-color="#D500F9"/>
<stop offset="0.99" stop-color="#2979FF"/>
</linearGradient>
<linearGradient id="paint39_linear" x1="10436.1" y1="-53323.7" x2="28678.3" y2="-60242.7" gradientUnits="userSpaceOnUse">
<stop stop-color="#D500F9"/>
<stop offset="0.99" stop-color="#2979FF"/>
</linearGradient>
<linearGradient id="paint40_linear" x1="25854.5" y1="-33967.6" x2="55074.1" y2="-45050.1" gradientUnits="userSpaceOnUse">
<stop stop-color="#D500F9"/>
<stop offset="0.99" stop-color="#2979FF"/>
</linearGradient>
<linearGradient id="paint41_linear" x1="7913.18" y1="-76603.8" x2="28111.6" y2="-84264.7" gradientUnits="userSpaceOnUse">
<stop stop-color="#EA80FC"/>
<stop offset="0.99" stop-color="#40C4FF"/>
</linearGradient>
<linearGradient id="paint42_linear" x1="25854.5" y1="-33967.6" x2="55074.1" y2="-45050.1" gradientUnits="userSpaceOnUse">
<stop stop-color="#D500F9"/>
<stop offset="0.99" stop-color="#2979FF"/>
</linearGradient>
<linearGradient id="paint43_linear" x1="585.724" y1="273.556" x2="722.043" y2="221.852" gradientUnits="userSpaceOnUse">
<stop offset="0.01" stop-color="#69F0AE"/>
<stop offset="1" stop-color="#00B0FF"/>
</linearGradient>
<linearGradient id="paint44_linear" x1="6354.54" y1="-10411.9" x2="6851.54" y2="-10600.4" gradientUnits="userSpaceOnUse">
<stop offset="0.01" stop-color="#69F0AE"/>
<stop offset="1" stop-color="#00B0FF"/>
</linearGradient>
<linearGradient id="paint45_linear" x1="47412.4" y1="-37693.8" x2="65602.9" y2="-44593.2" gradientUnits="userSpaceOnUse">
<stop stop-color="#40C4FF"/>
<stop offset="0.99" stop-color="#69F0AE"/>
</linearGradient>
<linearGradient id="paint46_linear" x1="6354.54" y1="-10411.9" x2="6851.54" y2="-10600.4" gradientUnits="userSpaceOnUse">
<stop offset="0.01" stop-color="#69F0AE"/>
<stop offset="1" stop-color="#00B0FF"/>
</linearGradient>
<linearGradient id="paint47_linear" x1="11756.5" y1="-9056.82" x2="13450.7" y2="-9699.38" gradientUnits="userSpaceOnUse">
<stop stop-color="#FFEA00"/>
<stop offset="0.99" stop-color="#D500F9"/>
</linearGradient>
<linearGradient id="paint48_linear" x1="-531.755" y1="-1465.92" x2="5506.04" y2="-3755.96" gradientUnits="userSpaceOnUse">
<stop stop-color="#FF80AB"/>
<stop offset="0.99" stop-color="#40C4FF"/>
</linearGradient>
<linearGradient id="paint49_linear" x1="-2298.3" y1="-28492.3" x2="-2308.17" y2="-32240.5" gradientUnits="userSpaceOnUse">
<stop stop-color="#FF80AB"/>
<stop offset="0.99" stop-color="#40C4FF"/>
</linearGradient>
<linearGradient id="paint50_linear" x1="-3504.46" y1="27658" x2="-3894.18" y2="29379" gradientUnits="userSpaceOnUse">
<stop stop-color="#FF80AB"/>
<stop offset="0.99" stop-color="#40C4FF"/>
</linearGradient>
<linearGradient id="paint51_linear" x1="-3050.17" y1="-11318.3" x2="-3021.24" y2="-11329.2" gradientUnits="userSpaceOnUse">
<stop stop-color="#40C4FF"/>
<stop offset="0.99" stop-color="#69F0AE"/>
</linearGradient>
<linearGradient id="paint52_linear" x1="21935.1" y1="-8722.62" x2="25199.2" y2="-9960.63" gradientUnits="userSpaceOnUse">
<stop stop-color="#FFEA00"/>
<stop offset="0.99" stop-color="#D500F9"/>
</linearGradient>
<linearGradient id="paint53_linear" x1="11351.1" y1="-7833.42" x2="12273.7" y2="-8183.35" gradientUnits="userSpaceOnUse">
<stop stop-color="#40C4FF"/>
<stop offset="0.99" stop-color="#69F0AE"/>
</linearGradient>
<linearGradient id="paint54_linear" x1="19617.7" y1="8396.6" x2="19869.1" y2="8676.44" gradientUnits="userSpaceOnUse">
<stop stop-color="#FF80AB"/>
<stop offset="0.99" stop-color="#40C4FF"/>
</linearGradient>
</defs>
</svg>
